<svg width="642" height="900" viewBox="0 0 642 900" fill="none" xmlns="http://www.w3.org/2000/svg">
<mask id="mask0_1_3364" style="mask-type:alpha" maskUnits="userSpaceOnUse" x="0" y="0" width="642" height="900">
<rect width="642" height="900" fill="#C4C4C4"/>
</mask>
<g mask="url(#mask0_1_3364)">
<path d="M300.708 -247.484L301.622 -247.08L-182.085 847.834L-183 847.43L300.708 -247.484Z" fill="#F0F6FE"/>
<path d="M329.064 -234.957L329.979 -234.553L-153.729 860.361L-154.644 859.957L329.064 -234.957Z" fill="#F0F6FE"/>
<path d="M358.335 -222.026L357.42 -222.43L-126.288 872.484L-125.373 872.888L358.335 -222.026Z" fill="#F0F6FE"/>
<path d="M385.776 -209.903L386.691 -209.499L-97.0167 885.415L-97.9315 885.011L385.776 -209.903Z" fill="#F0F6FE"/>
<path d="M415.047 -196.972L414.132 -197.376L-69.5753 897.538L-68.6606 897.942L415.047 -196.972Z" fill="#F0F6FE"/>
<path d="M442.489 -184.849L443.403 -184.445L-40.3044 910.469L-41.2191 910.065L442.489 -184.849Z" fill="#F0F6FE"/>
<path d="M471.759 -171.917L470.845 -172.322L-12.863 922.592L-11.9483 922.996L471.759 -171.917Z" fill="#F0F6FE"/>
<path d="M499.201 -159.794L500.116 -159.39L16.4079 935.523L15.4932 935.119L499.201 -159.794Z" fill="#F0F6FE"/>
<path d="M528.472 -146.863L527.557 -147.267L43.8493 947.646L44.7641 948.05L528.472 -146.863Z" fill="#F0F6FE"/>
<path d="M555.913 -134.74L556.828 -134.336L73.1202 960.578L72.2055 960.173L555.913 -134.74Z" fill="#F0F6FE"/>
<path d="M585.184 -121.809L584.269 -122.213L100.562 972.701L101.476 973.105L585.184 -121.809Z" fill="#F0F6FE"/>
<path d="M612.626 -109.686L613.54 -109.282L129.833 985.632L128.918 985.228L612.626 -109.686Z" fill="#F0F6FE"/>
<path d="M641.896 -96.7548L640.982 -97.1589L157.274 997.755L158.189 998.159L641.896 -96.7548Z" fill="#F0F6FE"/>
<path d="M669.338 -84.6318L670.253 -84.2277L186.545 1010.69L185.63 1010.28L669.338 -84.6318Z" fill="#F0F6FE"/>
<path d="M698.609 -71.7006L697.694 -72.1047L213.986 1022.81L214.901 1023.21L698.609 -71.7006Z" fill="#F0F6FE"/>
<path d="M726.05 -59.5776L726.965 -59.1735L243.257 1035.74L242.342 1035.34L726.05 -59.5776Z" fill="#F0F6FE"/>
<path d="M755.321 -46.6464L754.406 -47.0505L270.699 1047.86L271.613 1048.27L755.321 -46.6464Z" fill="#F0F6FE"/>
<path d="M782.762 -34.5234L783.677 -34.1193L299.969 1060.79L299.055 1060.39L782.762 -34.5234Z" fill="#F0F6FE"/>
<path d="M812.033 -21.5922L811.119 -21.9963L327.411 1072.92L328.326 1073.32L812.033 -21.5922Z" fill="#F0F6FE"/>
<path d="M839.475 -9.46923L840.39 -9.06513L356.682 1085.85L355.767 1085.44L839.475 -9.46923Z" fill="#F0F6FE"/>
<path d="M868.746 3.46197L867.831 3.05787L384.123 1097.97L385.038 1098.38L868.746 3.46197Z" fill="#F0F6FE"/>
<path d="M896.187 15.585L897.102 15.9891L413.394 1110.9L412.479 1110.5L896.187 15.585Z" fill="#F0F6FE"/>
<path d="M925.458 28.5162L924.543 28.1121L440.836 1123.03L441.75 1123.43L925.458 28.5162Z" fill="#F0F6FE"/>
<path d="M952.899 40.6392L953.814 41.0433L470.106 1135.96L469.192 1135.55L952.899 40.6392Z" fill="#F0F6FE"/>
<path d="M982.17 53.5704L981.256 53.1663L497.548 1148.08L498.463 1148.48L982.17 53.5704Z" fill="#F0F6FE"/>
</g>
</svg>
